<mxfile host="app.diagrams.net" modified="2023-05-23T11:42:30.629Z" agent="Mozilla/5.0 (Windows NT 10.0; Win64; x64) AppleWebKit/537.36 (KHTML, like Gecko) Chrome/113.0.0.0 Safari/537.36" etag="BiyZ9bT-Lho2gvLrghPB" version="21.3.2" type="device">
  <diagram name="Страница 1" id="asQuBK1cXi_OuHIL2pBx">
    <mxGraphModel dx="1050" dy="573" grid="1" gridSize="10" guides="1" tooltips="1" connect="1" arrows="1" fold="1" page="1" pageScale="1" pageWidth="827" pageHeight="1169" math="0" shadow="0">
      <root>
        <mxCell id="0" />
        <mxCell id="1" parent="0" />
        <mxCell id="n2Df9-LltssPZlHHQmOm-1" value="" style="triangle;whiteSpace=wrap;html=1;rotation=90;" vertex="1" parent="1">
          <mxGeometry x="320" y="110" width="70" height="80" as="geometry" />
        </mxCell>
        <mxCell id="n2Df9-LltssPZlHHQmOm-2" value="" style="shape=hexagon;perimeter=hexagonPerimeter2;whiteSpace=wrap;html=1;fixedSize=1;" vertex="1" parent="1">
          <mxGeometry x="170" y="270" width="50" height="50" as="geometry" />
        </mxCell>
        <mxCell id="n2Df9-LltssPZlHHQmOm-3" value="&lt;font style=&quot;font-size: 14px;&quot;&gt;Условия &lt;br&gt;для атаки &lt;br&gt;выполнены?&lt;/font&gt;" style="text;html=1;align=center;verticalAlign=middle;resizable=0;points=[];autosize=1;strokeColor=none;fillColor=none;" vertex="1" parent="1">
          <mxGeometry x="140" y="320" width="110" height="60" as="geometry" />
        </mxCell>
        <mxCell id="n2Df9-LltssPZlHHQmOm-4" value="" style="ellipse;whiteSpace=wrap;html=1;aspect=fixed;" vertex="1" parent="1">
          <mxGeometry x="265" y="270" width="40" height="40" as="geometry" />
        </mxCell>
        <mxCell id="n2Df9-LltssPZlHHQmOm-5" value="&lt;span style=&quot;font-size: 14px;&quot;&gt;Выбрать &lt;br&gt;юнитов &lt;br&gt;для атаки&lt;/span&gt;" style="text;html=1;align=center;verticalAlign=middle;resizable=0;points=[];autosize=1;strokeColor=none;fillColor=none;" vertex="1" parent="1">
          <mxGeometry x="240" y="310" width="90" height="60" as="geometry" />
        </mxCell>
        <mxCell id="n2Df9-LltssPZlHHQmOm-6" value="&lt;font style=&quot;font-size: 14px;&quot;&gt;Селектор&lt;/font&gt;" style="rounded=1;whiteSpace=wrap;html=1;" vertex="1" parent="1">
          <mxGeometry x="380" y="280" width="80" height="40" as="geometry" />
        </mxCell>
        <mxCell id="n2Df9-LltssPZlHHQmOm-7" value="&lt;font style=&quot;font-size: 14px;&quot;&gt;Последовательность&lt;/font&gt;" style="rounded=0;whiteSpace=wrap;html=1;" vertex="1" parent="1">
          <mxGeometry x="285" y="210" width="140" height="40" as="geometry" />
        </mxCell>
        <mxCell id="n2Df9-LltssPZlHHQmOm-8" value="" style="endArrow=classic;html=1;rounded=0;exitX=1;exitY=0.5;exitDx=0;exitDy=0;entryX=0.5;entryY=0;entryDx=0;entryDy=0;" edge="1" parent="1" source="n2Df9-LltssPZlHHQmOm-1" target="n2Df9-LltssPZlHHQmOm-7">
          <mxGeometry width="50" height="50" relative="1" as="geometry">
            <mxPoint x="390" y="320" as="sourcePoint" />
            <mxPoint x="440" y="270" as="targetPoint" />
          </mxGeometry>
        </mxCell>
        <mxCell id="n2Df9-LltssPZlHHQmOm-9" value="" style="endArrow=classic;html=1;rounded=0;exitX=0.5;exitY=1;exitDx=0;exitDy=0;entryX=0.5;entryY=0;entryDx=0;entryDy=0;" edge="1" parent="1" source="n2Df9-LltssPZlHHQmOm-7" target="n2Df9-LltssPZlHHQmOm-2">
          <mxGeometry width="50" height="50" relative="1" as="geometry">
            <mxPoint x="390" y="320" as="sourcePoint" />
            <mxPoint x="440" y="270" as="targetPoint" />
          </mxGeometry>
        </mxCell>
        <mxCell id="n2Df9-LltssPZlHHQmOm-10" value="" style="endArrow=classic;html=1;rounded=0;exitX=0.5;exitY=1;exitDx=0;exitDy=0;entryX=0.5;entryY=0;entryDx=0;entryDy=0;" edge="1" parent="1" source="n2Df9-LltssPZlHHQmOm-7" target="n2Df9-LltssPZlHHQmOm-4">
          <mxGeometry width="50" height="50" relative="1" as="geometry">
            <mxPoint x="390" y="320" as="sourcePoint" />
            <mxPoint x="440" y="270" as="targetPoint" />
          </mxGeometry>
        </mxCell>
        <mxCell id="n2Df9-LltssPZlHHQmOm-11" value="" style="endArrow=classic;html=1;rounded=0;exitX=0.5;exitY=1;exitDx=0;exitDy=0;entryX=0.5;entryY=0;entryDx=0;entryDy=0;" edge="1" parent="1" source="n2Df9-LltssPZlHHQmOm-7" target="n2Df9-LltssPZlHHQmOm-6">
          <mxGeometry width="50" height="50" relative="1" as="geometry">
            <mxPoint x="390" y="320" as="sourcePoint" />
            <mxPoint x="440" y="270" as="targetPoint" />
          </mxGeometry>
        </mxCell>
        <mxCell id="n2Df9-LltssPZlHHQmOm-13" value="" style="ellipse;whiteSpace=wrap;html=1;aspect=fixed;" vertex="1" parent="1">
          <mxGeometry x="355" y="330" width="40" height="40" as="geometry" />
        </mxCell>
        <mxCell id="n2Df9-LltssPZlHHQmOm-14" value="&lt;span style=&quot;font-size: 14px;&quot;&gt;Атака &lt;br&gt;вражеских &lt;br&gt;юнитов&lt;/span&gt;" style="text;html=1;align=center;verticalAlign=middle;resizable=0;points=[];autosize=1;strokeColor=none;fillColor=none;" vertex="1" parent="1">
          <mxGeometry x="330" y="370" width="90" height="60" as="geometry" />
        </mxCell>
        <mxCell id="n2Df9-LltssPZlHHQmOm-15" value="" style="ellipse;whiteSpace=wrap;html=1;aspect=fixed;" vertex="1" parent="1">
          <mxGeometry x="450" y="330" width="40" height="40" as="geometry" />
        </mxCell>
        <mxCell id="n2Df9-LltssPZlHHQmOm-16" value="&lt;span style=&quot;font-size: 14px;&quot;&gt;Атака &lt;br&gt;вражеских &lt;br&gt;зданий&lt;/span&gt;" style="text;html=1;align=center;verticalAlign=middle;resizable=0;points=[];autosize=1;strokeColor=none;fillColor=none;" vertex="1" parent="1">
          <mxGeometry x="425" y="370" width="90" height="60" as="geometry" />
        </mxCell>
        <mxCell id="n2Df9-LltssPZlHHQmOm-17" value="" style="endArrow=classic;html=1;rounded=0;exitX=0.5;exitY=1;exitDx=0;exitDy=0;entryX=0.5;entryY=0;entryDx=0;entryDy=0;" edge="1" parent="1" source="n2Df9-LltssPZlHHQmOm-6" target="n2Df9-LltssPZlHHQmOm-13">
          <mxGeometry width="50" height="50" relative="1" as="geometry">
            <mxPoint x="390" y="320" as="sourcePoint" />
            <mxPoint x="440" y="270" as="targetPoint" />
          </mxGeometry>
        </mxCell>
        <mxCell id="n2Df9-LltssPZlHHQmOm-18" value="" style="endArrow=classic;html=1;rounded=0;exitX=0.5;exitY=1;exitDx=0;exitDy=0;entryX=0.5;entryY=0;entryDx=0;entryDy=0;" edge="1" parent="1" source="n2Df9-LltssPZlHHQmOm-6" target="n2Df9-LltssPZlHHQmOm-15">
          <mxGeometry width="50" height="50" relative="1" as="geometry">
            <mxPoint x="390" y="320" as="sourcePoint" />
            <mxPoint x="440" y="270" as="targetPoint" />
          </mxGeometry>
        </mxCell>
      </root>
    </mxGraphModel>
  </diagram>
</mxfile>
